<?xml version="1.0" encoding="UTF-8" standalone="no"?>
<svg xmlns:svg="http://www.w3.org/2000/svg" xmlns="http://www.w3.org/2000/svg" version="1.0" width="800" height="800" id="rgg">
<g style="stroke:#000000;stroke-width:3;stroke-linejoin:round;fill:none">
<line x1=" 35.02" y1="655.17" x2=" 55.70" y2="668.71"/>
<line x1=" 35.02" y1="655.17" x2=" 42.67" y2="625.22"/>
<line x1=" 35.02" y1="655.17" x2="106.92" y2="654.95"/>
<line x1=" 35.02" y1="655.17" x2=" 34.94" y2="717.44"/>
<line x1="498.18" y1="510.40" x2="449.09" y2="495.61"/>
<line x1="498.18" y1="510.40" x2="465.50" y2="527.25"/>
<line x1="498.18" y1="510.40" x2="493.47" y2="461.01"/>
<line x1="498.18" y1="510.40" x2="453.07" y2="561.11"/>
<line x1="498.18" y1="510.40" x2="503.85" y2="440.26"/>
<line x1="498.18" y1="510.40" x2="477.87" y2="505.91"/>
<line x1="498.18" y1="510.40" x2="521.73" y2="545.14"/>
<line x1="706.84" y1="453.29" x2="641.85" y2="481.33"/>
<line x1="706.84" y1="453.29" x2="718.98" y2="464.33"/>
<line x1="706.84" y1="453.29" x2="746.73" y2="455.94"/>
<line x1="706.84" y1="453.29" x2="724.21" y2="513.34"/>
<line x1="140.78" y1="720.75" x2="169.56" y2="761.52"/>
<line x1="140.78" y1="720.75" x2="194.58" y2="750.19"/>
<line x1="140.78" y1="720.75" x2=" 74.69" y2="752.99"/>
<line x1="140.78" y1="720.75" x2="107.29" y2="765.94"/>
<line x1="140.78" y1="720.75" x2="113.77" y2="672.61"/>
<line x1="140.78" y1="720.75" x2="160.95" y2="653.40"/>
<line x1="544.40" y1="360.55" x2="596.73" y2="375.27"/>
<line x1="544.40" y1="360.55" x2="580.03" y2="312.05"/>
<line x1="544.40" y1="360.55" x2="504.66" y2="396.03"/>
<line x1="544.40" y1="360.55" x2="590.99" y2="329.42"/>
<line x1="544.40" y1="360.55" x2="539.84" y2="310.80"/>
<line x1="544.40" y1="360.55" x2="580.17" y2="414.72"/>
<line x1="544.40" y1="360.55" x2="476.40" y2="339.57"/>
<line x1="544.40" y1="360.55" x2="612.85" y2="355.03"/>
<line x1="544.40" y1="360.55" x2="508.71" y2="356.87"/>
<line x1="544.40" y1="360.55" x2="561.33" y2="325.30"/>
<line x1="544.40" y1="360.55" x2="559.27" y2="408.02"/>
<line x1="544.40" y1="360.55" x2="539.99" y2="397.20"/>
<line x1="451.89" y1="631.47" x2="410.38" y2="599.53"/>
<line x1="451.89" y1="631.47" x2="440.26" y2="594.60"/>
<line x1="451.89" y1="631.47" x2="401.55" y2="675.63"/>
<line x1="451.89" y1="631.47" x2="504.36" y2="616.24"/>
<line x1="451.89" y1="631.47" x2="453.07" y2="561.11"/>
<line x1="451.89" y1="631.47" x2="431.13" y2="659.07"/>
<line x1="451.89" y1="631.47" x2="488.47" y2="629.34"/>
<line x1="273.48" y1="534.47" x2="321.32" y2="496.27"/>
<line x1="273.48" y1="534.47" x2="247.57" y2="513.42"/>
<line x1="273.48" y1="534.47" x2="286.51" y2="519.08"/>
<line x1="273.48" y1="534.47" x2="219.61" y2="579.36"/>
<line x1="273.48" y1="534.47" x2="227.63" y2="495.83"/>
<line x1="273.48" y1="534.47" x2="252.28" y2="575.46"/>
<line x1="273.48" y1="534.47" x2="308.29" y2="511.21"/>
<line x1="273.48" y1="534.47" x2="315.36" y2="576.49"/>
<line x1="765.13" y1=" 68.14" x2="721.93" y2="107.07"/>
<line x1="765.13" y1=" 68.14" x2="737.75" y2=" 90.73"/>
<line x1="765.13" y1=" 68.14" x2="758.36" y2=" 42.45"/>
<line x1="765.13" y1=" 68.14" x2="755.64" y2="100.60"/>
<line x1="765.13" y1=" 68.14" x2="766.23" y2="129.81"/>
<line x1="765.13" y1=" 68.14" x2="736.79" y2=" 48.71"/>
<line x1="765.13" y1=" 68.14" x2="695.21" y2=" 88.75"/>
<line x1="252.43" y1="174.93" x2="227.92" y2="234.92"/>
<line x1="252.43" y1="174.93" x2="193.18" y2="167.57"/>
<line x1="252.43" y1="174.93" x2="314.92" y2="136.22"/>
<line x1="252.43" y1="174.93" x2="223.36" y2="216.74"/>
<line x1="252.43" y1="174.93" x2="182.44" y2="154.10"/>
<line x1="252.43" y1="174.93" x2="230.35" y2="151.53"/>
<line x1="252.43" y1="174.93" x2="240.66" y2="205.40"/>
<line x1="252.43" y1="174.93" x2="195.61" y2="189.65"/>
<line x1="252.43" y1="174.93" x2="263.25" y2="139.60"/>
<line x1="387.27" y1="432.09" x2="353.63" y2="425.76"/>
<line x1="387.27" y1="432.09" x2="362.32" y2="494.36"/>
<line x1="387.27" y1="432.09" x2="315.43" y2="435.62"/>
<line x1="207.98" y1="370.85" x2="259.64" y2="351.64"/>
<line x1="207.98" y1="370.85" x2="191.56" y2="327.72"/>
<line x1="207.98" y1="370.85" x2="148.66" y2="329.42"/>
<line x1="207.98" y1="370.85" x2="139.24" y2="353.56"/>
<line x1="319.19" y1=" 43.26" x2="267.15" y2=" 67.70"/>
<line x1="319.19" y1=" 43.26" x2="346.42" y2=" 36.05"/>
<line x1="319.19" y1=" 43.26" x2="339.80" y2=" 52.98"/>
<line x1="319.19" y1=" 43.26" x2="267.23" y2=" 48.34"/>
<line x1="319.19" y1=" 43.26" x2="381.23" y2=" 79.77"/>
<line x1=" 53.49" y1="207.32" x2=" 34.72" y2="242.42"/>
<line x1=" 53.49" y1="207.32" x2=" 98.24" y2="222.70"/>
<line x1=" 53.49" y1="207.32" x2=" 35.90" y2="179.13"/>
<line x1=" 53.49" y1="207.32" x2=" 70.49" y2="148.80"/>
<line x1=" 53.49" y1="207.32" x2=" 56.14" y2="226.75"/>
<line x1=" 53.49" y1="207.32" x2=" 46.20" y2="267.15"/>
<line x1=" 53.49" y1="207.32" x2=" 70.79" y2="225.20"/>
<line x1=" 53.49" y1="207.32" x2="110.02" y2="173.75"/>
<line x1=" 53.49" y1="207.32" x2=" 45.84" y2="161.76"/>
<line x1=" 53.49" y1="207.32" x2=" 72.92" y2="268.70"/>
<line x1=" 53.49" y1="207.32" x2=" 99.05" y2="152.34"/>
<line x1="578.19" y1="673.50" x2="541.61" y2="699.70"/>
<line x1="578.19" y1="673.50" x2="579.66" y2="732.08"/>
<line x1="578.19" y1="673.50" x2="583.04" y2="642.66"/>
<line x1="578.19" y1="673.50" x2="514.74" y2="689.40"/>
<line x1="747.24" y1="760.27" x2="717.51" y2="731.42"/>
<line x1="432.90" y1="159.03" x2="383.15" y2="145.20"/>
<line x1="432.90" y1="159.03" x2="400.44" y2="113.03"/>
<line x1="432.90" y1="159.03" x2="372.47" y2="129.37"/>
<line x1="432.90" y1="159.03" x2="439.52" y2="145.20"/>
<line x1="432.90" y1="159.03" x2="482.28" y2="185.24"/>
<line x1="432.90" y1="159.03" x2="433.64" y2="200.32"/>
<line x1="432.90" y1="159.03" x2="462.12" y2="224.02"/>
<line x1="432.90" y1="159.03" x2="483.83" y2="210.33"/>
<line x1="432.90" y1="159.03" x2="457.85" y2="198.56"/>
<line x1="432.90" y1="159.03" x2="446.29" y2="173.90"/>
<line x1="432.90" y1="159.03" x2="415.09" y2="163.23"/>
<line x1="383.15" y1="145.20" x2="400.44" y2="113.03"/>
<line x1="383.15" y1="145.20" x2="372.47" y2="129.37"/>
<line x1="383.15" y1="145.20" x2="439.52" y2="145.20"/>
<line x1="383.15" y1="145.20" x2="328.68" y2="183.03"/>
<line x1="383.15" y1="145.20" x2="374.09" y2="214.75"/>
<line x1="383.15" y1="145.20" x2="314.92" y2="136.22"/>
<line x1="383.15" y1="145.20" x2="405.52" y2=" 84.40"/>
<line x1="383.15" y1="145.20" x2="381.23" y2=" 79.77"/>
<line x1="383.15" y1="145.20" x2="446.29" y2="173.90"/>
<line x1="383.15" y1="145.20" x2="415.09" y2="163.23"/>
<line x1="169.56" y1="761.52" x2="231.01" y2="762.85"/>
<line x1="169.56" y1="761.52" x2="194.58" y2="750.19"/>
<line x1="169.56" y1="761.52" x2="107.29" y2="765.94"/>
<line x1="449.09" y1="495.61" x2="465.50" y2="527.25"/>
<line x1="449.09" y1="495.61" x2="493.47" y2="461.01"/>
<line x1="449.09" y1="495.61" x2="407.14" y2="511.28"/>
<line x1="449.09" y1="495.61" x2="453.07" y2="561.11"/>
<line x1="449.09" y1="495.61" x2="477.87" y2="505.91"/>
<line x1="549.78" y1="760.20" x2="541.61" y2="699.70"/>
<line x1="549.78" y1="760.20" x2="504.00" y2="706.76"/>
<line x1="549.78" y1="760.20" x2="579.66" y2="732.08"/>
<line x1="549.78" y1="760.20" x2="484.93" y2="731.94"/>
<line x1="672.54" y1="312.49" x2="612.85" y2="355.03"/>
<line x1="672.54" y1="312.49" x2="686.75" y2="375.49"/>
<line x1="672.54" y1="312.49" x2="735.98" y2="288.64"/>
<line x1="672.54" y1="312.49" x2="647.66" y2="253.32"/>
<line x1="672.54" y1="312.49" x2="659.51" y2="279.08"/>
<line x1="672.54" y1="312.49" x2="719.20" y2="272.75"/>
<line x1="129.30" y1=" 56.51" x2="113.48" y2=" 46.06"/>
<line x1="129.30" y1=" 56.51" x2="136.88" y2=" 72.85"/>
<line x1="129.30" y1=" 56.51" x2=" 99.12" y2=" 91.47"/>
<line x1="129.30" y1=" 56.51" x2="166.84" y2="101.55"/>
<line x1="129.30" y1=" 56.51" x2="191.71" y2=" 55.18"/>
<line x1="129.30" y1=" 56.51" x2="140.71" y2="120.32"/>
<line x1="596.73" y1="375.27" x2="580.03" y2="312.05"/>
<line x1="596.73" y1="375.27" x2="590.99" y2="329.42"/>
<line x1="596.73" y1="375.27" x2="641.48" y2="380.42"/>
<line x1="596.73" y1="375.27" x2="580.17" y2="414.72"/>
<line x1="596.73" y1="375.27" x2="612.85" y2="355.03"/>
<line x1="596.73" y1="375.27" x2="561.33" y2="325.30"/>
<line x1="596.73" y1="375.27" x2="559.27" y2="408.02"/>
<line x1="596.73" y1="375.27" x2="539.99" y2="397.20"/>
<line x1="410.38" y1="599.53" x2="440.26" y2="594.60"/>
<line x1="410.38" y1="599.53" x2="397.50" y2="574.87"/>
<line x1="410.38" y1="599.53" x2="349.14" y2="592.54"/>
<line x1="410.38" y1="599.53" x2="453.07" y2="561.11"/>
<line x1="410.38" y1="599.53" x2="361.29" y2="622.42"/>
<line x1="410.38" y1="599.53" x2="431.13" y2="659.07"/>
<line x1="639.42" y1="537.48" x2="577.38" y2="500.02"/>
<line x1="639.42" y1="537.48" x2="689.62" y2="580.39"/>
<line x1="639.42" y1="537.48" x2="621.46" y2="558.76"/>
<line x1="639.42" y1="537.48" x2="617.71" y2="487.66"/>
<line x1="639.42" y1="537.48" x2="641.85" y2="481.33"/>
<line x1="639.42" y1="537.48" x2="617.71" y2="575.98"/>
<line x1="440.26" y1="594.60" x2="465.50" y2="527.25"/>
<line x1="440.26" y1="594.60" x2="397.50" y2="574.87"/>
<line x1="440.26" y1="594.60" x2="504.36" y2="616.24"/>
<line x1="440.26" y1="594.60" x2="453.07" y2="561.11"/>
<line x1="440.26" y1="594.60" x2="431.13" y2="659.07"/>
<line x1="440.26" y1="594.60" x2="488.47" y2="629.34"/>
<line x1="227.92" y1="234.92" x2="202.46" y2="255.38"/>
<line x1="227.92" y1="234.92" x2="223.36" y2="216.74"/>
<line x1="227.92" y1="234.92" x2="161.76" y2="228.36"/>
<line x1="227.92" y1="234.92" x2="232.56" y2="255.08"/>
<line x1="227.92" y1="234.92" x2="182.36" y2="234.99"/>
<line x1="227.92" y1="234.92" x2="201.50" y2="235.14"/>
<line x1="227.92" y1="234.92" x2="240.66" y2="205.40"/>
<line x1="227.92" y1="234.92" x2="218.36" y2="250.08"/>
<line x1="227.92" y1="234.92" x2="195.61" y2="189.65"/>
<line x1=" 34.72" y1="242.42" x2=" 98.24" y2="222.70"/>
<line x1=" 34.72" y1="242.42" x2=" 35.90" y2="179.13"/>
<line x1=" 34.72" y1="242.42" x2=" 66.74" y2="298.58"/>
<line x1=" 34.72" y1="242.42" x2=" 56.14" y2="226.75"/>
<line x1=" 34.72" y1="242.42" x2=" 46.20" y2="267.15"/>
<line x1=" 34.72" y1="242.42" x2=" 46.87" y2="298.80"/>
<line x1=" 34.72" y1="242.42" x2=" 70.79" y2="225.20"/>
<line x1=" 34.72" y1="242.42" x2=" 72.92" y2="268.70"/>
<line x1="674.01" y1="748.94" x2="697.34" y2="690.13"/>
<line x1="674.01" y1="748.94" x2="717.51" y2="731.42"/>
<line x1="674.01" y1="748.94" x2="634.78" y2="742.76"/>
<line x1="586.13" y1=" 89.26" x2="572.96" y2="116.64"/>
<line x1="586.13" y1=" 89.26" x2="621.32" y2="130.40"/>
<line x1="586.13" y1=" 89.26" x2="602.62" y2=" 60.19"/>
<line x1="586.13" y1=" 89.26" x2="593.13" y2=" 71.52"/>
<line x1="586.13" y1=" 89.26" x2="630.15" y2=" 66.37"/>
<line x1="586.13" y1=" 89.26" x2="553.68" y2="136.95"/>
<line x1="586.13" y1=" 89.26" x2="565.82" y2=" 33.77"/>
<line x1="586.13" y1=" 89.26" x2="544.40" y2=" 72.33"/>
<line x1="202.46" y1="255.38" x2="155.13" y2="207.61"/>
<line x1="202.46" y1="255.38" x2="223.36" y2="216.74"/>
<line x1="202.46" y1="255.38" x2="158.44" y2="308.22"/>
<line x1="202.46" y1="255.38" x2="191.56" y2="327.72"/>
<line x1="202.46" y1="255.38" x2="161.76" y2="228.36"/>
<line x1="202.46" y1="255.38" x2="232.56" y2="255.08"/>
<line x1="202.46" y1="255.38" x2="182.36" y2="234.99"/>
<line x1="202.46" y1="255.38" x2="201.50" y2="235.14"/>
<line x1="202.46" y1="255.38" x2="240.66" y2="205.40"/>
<line x1="202.46" y1="255.38" x2="218.36" y2="250.08"/>
<line x1="202.46" y1="255.38" x2="195.61" y2="189.65"/>
<line x1="193.18" y1="167.57" x2="155.13" y2="207.61"/>
<line x1="193.18" y1="167.57" x2="170.44" y2="179.05"/>
<line x1="193.18" y1="167.57" x2="223.36" y2="216.74"/>
<line x1="193.18" y1="167.57" x2="166.84" y2="101.55"/>
<line x1="193.18" y1="167.57" x2="182.44" y2="154.10"/>
<line x1="193.18" y1="167.57" x2="161.76" y2="228.36"/>
<line x1="193.18" y1="167.57" x2="145.56" y2="173.61"/>
<line x1="193.18" y1="167.57" x2="209.60" y2="103.69"/>
<line x1="193.18" y1="167.57" x2="230.35" y2="151.53"/>
<line x1="193.18" y1="167.57" x2="182.36" y2="234.99"/>
<line x1="193.18" y1="167.57" x2="140.71" y2="120.32"/>
<line x1="193.18" y1="167.57" x2="201.50" y2="235.14"/>
<line x1="193.18" y1="167.57" x2="240.66" y2="205.40"/>
<line x1="193.18" y1="167.57" x2="195.61" y2="189.65"/>
<line x1=" 53.20" y1=" 39.80" x2="113.48" y2=" 46.06"/>
<line x1=" 53.20" y1=" 39.80" x2=" 53.42" y2=" 93.53"/>
<line x1=" 53.20" y1=" 39.80" x2=" 99.12" y2=" 91.47"/>
<line x1="697.34" y1="690.13" x2="706.25" y2="667.61"/>
<line x1="697.34" y1="690.13" x2="717.51" y2="731.42"/>
<line x1="697.34" y1="690.13" x2="685.20" y2="652.67"/>
<line x1="697.34" y1="690.13" x2="708.16" y2="647.30"/>
<line x1="713.83" y1="226.89" x2="740.69" y2="225.05"/>
<line x1="713.83" y1="226.89" x2="676.44" y2="167.42"/>
<line x1="713.83" y1="226.89" x2="660.40" y2="200.69"/>
<line x1="713.83" y1="226.89" x2="754.38" y2="244.56"/>
<line x1="713.83" y1="226.89" x2="735.98" y2="288.64"/>
<line x1="713.83" y1="226.89" x2="647.66" y2="253.32"/>
<line x1="713.83" y1="226.89" x2="720.68" y2="203.05"/>
<line x1="713.83" y1="226.89" x2="719.20" y2="272.75"/>
<line x1="713.83" y1="226.89" x2="642.59" y2="228.73"/>
<line x1="580.03" y1="312.05" x2="584.44" y2="255.01"/>
<line x1="580.03" y1="312.05" x2="590.99" y2="329.42"/>
<line x1="580.03" y1="312.05" x2="572.81" y2="267.45"/>
<line x1="580.03" y1="312.05" x2="539.84" y2="310.80"/>
<line x1="580.03" y1="312.05" x2="612.85" y2="355.03"/>
<line x1="580.03" y1="312.05" x2="561.33" y2="325.30"/>
<line x1="465.50" y1="527.25" x2="493.47" y2="461.01"/>
<line x1="465.50" y1="527.25" x2="407.14" y2="511.28"/>
<line x1="465.50" y1="527.25" x2="453.07" y2="561.11"/>
<line x1="465.50" y1="527.25" x2="477.87" y2="505.91"/>
<line x1="465.50" y1="527.25" x2="521.73" y2="545.14"/>
<line x1="353.63" y1="425.76" x2="301.01" y2="442.25"/>
<line x1="353.63" y1="425.76" x2="306.38" y2="392.12"/>
<line x1="353.63" y1="425.76" x2="362.32" y2="494.36"/>
<line x1="353.63" y1="425.76" x2="349.44" y2="352.53"/>
<line x1="353.63" y1="425.76" x2="315.43" y2="435.62"/>
<line x1="353.63" y1="425.76" x2="343.25" y2="367.98"/>
<line x1="400.44" y1="113.03" x2="372.47" y2="129.37"/>
<line x1="400.44" y1="113.03" x2="439.52" y2="145.20"/>
<line x1="400.44" y1="113.03" x2="405.52" y2=" 84.40"/>
<line x1="400.44" y1="113.03" x2="439.38" y2=" 65.12"/>
<line x1="400.44" y1="113.03" x2="381.23" y2=" 79.77"/>
<line x1="400.44" y1="113.03" x2="402.21" y2=" 55.99"/>
<line x1="400.44" y1="113.03" x2="415.09" y2="163.23"/>
<line x1="355.32" y1="293.13" x2="325.37" y2="274.14"/>
<line x1="355.32" y1="293.13" x2="370.27" y2="327.95"/>
<line x1="355.32" y1="293.13" x2="349.44" y2="352.53"/>
<line x1="355.32" y1="293.13" x2="385.43" y2="333.69"/>
<line x1="355.32" y1="293.13" x2="307.04" y2="272.01"/>
<line x1="355.32" y1="293.13" x2="357.53" y2="335.89"/>
<line x1="355.32" y1="293.13" x2="376.08" y2="248.24"/>
<line x1="740.69" y1="225.05" x2="754.38" y2="244.56"/>
<line x1="740.69" y1="225.05" x2="735.98" y2="288.64"/>
<line x1="740.69" y1="225.05" x2="720.68" y2="203.05"/>
<line x1="740.69" y1="225.05" x2="719.20" y2="272.75"/>
<line x1="332.58" y1="764.61" x2="373.43" y2="742.83"/>
<line x1="332.58" y1="764.61" x2="282.31" y2="752.47"/>
<line x1="332.58" y1="764.61" x2="346.27" y2="706.91"/>
<line x1="332.58" y1="764.61" x2="316.76" y2="720.97"/>
<line x1="676.44" y1="167.42" x2="621.32" y2="130.40"/>
<line x1="676.44" y1="167.42" x2="660.40" y2="200.69"/>
<line x1="676.44" y1="167.42" x2="705.88" y2="143.21"/>
<line x1="676.44" y1="167.42" x2="629.19" y2="157.19"/>
<line x1="676.44" y1="167.42" x2="622.20" y2="188.40"/>
<line x1="676.44" y1="167.42" x2="720.68" y2="203.05"/>
<line x1="676.44" y1="167.42" x2="642.59" y2="228.73"/>
<line x1="397.50" y1="574.87" x2="407.14" y2="511.28"/>
<line x1="397.50" y1="574.87" x2="349.14" y2="592.54"/>
<line x1="397.50" y1="574.87" x2="453.07" y2="561.11"/>
<line x1="397.50" y1="574.87" x2="361.29" y2="622.42"/>
<line x1="321.32" y1="496.27" x2="301.01" y2="442.25"/>
<line x1="321.32" y1="496.27" x2="349.22" y2="519.01"/>
<line x1="321.32" y1="496.27" x2="286.51" y2="519.08"/>
<line x1="321.32" y1="496.27" x2="362.32" y2="494.36"/>
<line x1="321.32" y1="496.27" x2="315.43" y2="435.62"/>
<line x1="321.32" y1="496.27" x2="308.29" y2="511.21"/>
<line x1="543.08" y1="211.51" x2="482.28" y2="185.24"/>
<line x1="543.08" y1="211.51" x2="542.86" y2="158.89"/>
<line x1="543.08" y1="211.51" x2="584.44" y2="255.01"/>
<line x1="543.08" y1="211.51" x2="572.81" y2="267.45"/>
<line x1="543.08" y1="211.51" x2="606.60" y2="210.19"/>
<line x1="543.08" y1="211.51" x2="511.80" y2="146.52"/>
<line x1="543.08" y1="211.51" x2="488.47" y2="225.86"/>
<line x1="543.08" y1="211.51" x2="483.83" y2="210.33"/>
<line x1="543.08" y1="211.51" x2="524.16" y2="218.13"/>
<line x1="543.08" y1="211.51" x2="556.69" y2="191.05"/>
<line x1="543.08" y1="211.51" x2="568.18" y2="219.68"/>
<line x1="372.47" y1="129.37" x2="439.52" y2="145.20"/>
<line x1="372.47" y1="129.37" x2="328.68" y2="183.03"/>
<line x1="372.47" y1="129.37" x2="314.92" y2="136.22"/>
<line x1="372.47" y1="129.37" x2="405.52" y2=" 84.40"/>
<line x1="372.47" y1="129.37" x2="381.23" y2=" 79.77"/>
<line x1="372.47" y1="129.37" x2="415.09" y2="163.23"/>
<line x1="439.52" y1="145.20" x2="482.28" y2="185.24"/>
<line x1="439.52" y1="145.20" x2="433.64" y2="200.32"/>
<line x1="439.52" y1="145.20" x2="511.80" y2="146.52"/>
<line x1="439.52" y1="145.20" x2="490.09" y2="106.19"/>
<line x1="439.52" y1="145.20" x2="405.52" y2=" 84.40"/>
<line x1="439.52" y1="145.20" x2="457.85" y2="198.56"/>
<line x1="439.52" y1="145.20" x2="446.29" y2="173.90"/>
<line x1="439.52" y1="145.20" x2="415.09" y2="163.23"/>
<line x1="482.28" y1="185.24" x2="542.86" y2="158.89"/>
<line x1="482.28" y1="185.24" x2="433.64" y2="200.32"/>
<line x1="482.28" y1="185.24" x2="511.80" y2="146.52"/>
<line x1="482.28" y1="185.24" x2="462.12" y2="224.02"/>
<line x1="482.28" y1="185.24" x2="488.47" y2="225.86"/>
<line x1="482.28" y1="185.24" x2="483.83" y2="210.33"/>
<line x1="482.28" y1="185.24" x2="524.16" y2="218.13"/>
<line x1="482.28" y1="185.24" x2="457.85" y2="198.56"/>
<line x1="482.28" y1="185.24" x2="446.29" y2="173.90"/>
<line x1="482.28" y1="185.24" x2="415.09" y2="163.23"/>
<line x1="247.57" y1="513.42" x2="286.51" y2="519.08"/>
<line x1="247.57" y1="513.42" x2="219.61" y2="579.36"/>
<line x1="247.57" y1="513.42" x2="212.69" y2="454.02"/>
<line x1="247.57" y1="513.42" x2="227.63" y2="495.83"/>
<line x1="247.57" y1="513.42" x2="225.20" y2="446.15"/>
<line x1="247.57" y1="513.42" x2="252.28" y2="575.46"/>
<line x1="247.57" y1="513.42" x2="183.10" y2="544.40"/>
<line x1="247.57" y1="513.42" x2="308.29" y2="511.21"/>
<line x1="373.43" y1="742.83" x2="401.55" y2="675.63"/>
<line x1="373.43" y1="742.83" x2="346.27" y2="706.91"/>
<line x1="373.43" y1="742.83" x2="316.76" y2="720.97"/>
<line x1="231.01" y1="762.85" x2="194.58" y2="750.19"/>
<line x1="231.01" y1="762.85" x2="239.04" y2="732.23"/>
<line x1="231.01" y1="762.85" x2="282.31" y2="752.47"/>
<line x1="324.71" y1="201.72" x2="325.37" y2="274.14"/>
<line x1="324.71" y1="201.72" x2="328.68" y2="183.03"/>
<line x1="324.71" y1="201.72" x2="374.09" y2="214.75"/>
<line x1="324.71" y1="201.72" x2="314.92" y2="136.22"/>
<line x1="324.71" y1="201.72" x2="307.04" y2="272.01"/>
<line x1="324.71" y1="201.72" x2="376.08" y2="248.24"/>
<line x1="155.13" y1="207.61" x2=" 98.24" y2="222.70"/>
<line x1="155.13" y1="207.61" x2="170.44" y2="179.05"/>
<line x1="155.13" y1="207.61" x2="223.36" y2="216.74"/>
<line x1="155.13" y1="207.61" x2="182.44" y2="154.10"/>
<line x1="155.13" y1="207.61" x2="161.76" y2="228.36"/>
<line x1="155.13" y1="207.61" x2="145.56" y2="173.61"/>
<line x1="155.13" y1="207.61" x2="114.36" y2="263.99"/>
<line x1="155.13" y1="207.61" x2="110.02" y2="173.75"/>
<line x1="155.13" y1="207.61" x2="182.36" y2="234.99"/>
<line x1="155.13" y1="207.61" x2="201.50" y2="235.14"/>
<line x1="155.13" y1="207.61" x2="195.61" y2="189.65"/>
<line x1="401.55" y1="675.63" x2="342.67" y2="664.08"/>
<line x1="401.55" y1="675.63" x2="361.29" y2="622.42"/>
<line x1="401.55" y1="675.63" x2="346.27" y2="706.91"/>
<line x1="401.55" y1="675.63" x2="431.13" y2="659.07"/>
<line x1="541.61" y1="699.70" x2="504.00" y2="706.76"/>
<line x1="541.61" y1="699.70" x2="579.66" y2="732.08"/>
<line x1="541.61" y1="699.70" x2="484.93" y2="731.94"/>
<line x1="541.61" y1="699.70" x2="583.04" y2="642.66"/>
<line x1="541.61" y1="699.70" x2="514.74" y2="689.40"/>
<line x1="493.47" y1="461.01" x2="530.79" y2="442.17"/>
<line x1="493.47" y1="461.01" x2="504.66" y2="396.03"/>
<line x1="493.47" y1="461.01" x2="503.85" y2="440.26"/>
<line x1="493.47" y1="461.01" x2="477.87" y2="505.91"/>
<line x1="530.79" y1="442.17" x2="504.66" y2="396.03"/>
<line x1="530.79" y1="442.17" x2="580.17" y2="414.72"/>
<line x1="530.79" y1="442.17" x2="559.27" y2="408.02"/>
<line x1="530.79" y1="442.17" x2="539.99" y2="397.20"/>
<line x1="530.79" y1="442.17" x2="503.85" y2="440.26"/>
<line x1="407.14" y1="511.28" x2="349.22" y2="519.01"/>
<line x1="407.14" y1="511.28" x2="453.07" y2="561.11"/>
<line x1="407.14" y1="511.28" x2="362.32" y2="494.36"/>
<line x1="407.14" y1="511.28" x2="477.87" y2="505.91"/>
<line x1="325.37" y1="274.14" x2="370.27" y2="327.95"/>
<line x1="325.37" y1="274.14" x2="307.04" y2="272.01"/>
<line x1="325.37" y1="274.14" x2="357.53" y2="335.89"/>
<line x1="325.37" y1="274.14" x2="376.08" y2="248.24"/>
<line x1="706.25" y1="667.61" x2="717.51" y2="731.42"/>
<line x1="706.25" y1="667.61" x2="685.20" y2="652.67"/>
<line x1="706.25" y1="667.61" x2="708.16" y2="647.30"/>
<line x1="301.01" y1="442.25" x2="306.38" y2="392.12"/>
<line x1="301.01" y1="442.25" x2="315.43" y2="435.62"/>
<line x1="301.01" y1="442.25" x2="308.29" y2="511.21"/>
<line x1="328.68" y1="183.03" x2="374.09" y2="214.75"/>
<line x1="328.68" y1="183.03" x2="314.92" y2="136.22"/>
<line x1="572.96" y1="116.64" x2="542.86" y2="158.89"/>
<line x1="572.96" y1="116.64" x2="621.32" y2="130.40"/>
<line x1="572.96" y1="116.64" x2="602.62" y2=" 60.19"/>
<line x1="572.96" y1="116.64" x2="593.13" y2=" 71.52"/>
<line x1="572.96" y1="116.64" x2="511.80" y2="146.52"/>
<line x1="572.96" y1="116.64" x2="553.68" y2="136.95"/>
<line x1="572.96" y1="116.64" x2="629.19" y2="157.19"/>
<line x1="572.96" y1="116.64" x2="544.40" y2=" 72.33"/>
<line x1="542.86" y1="158.89" x2="511.80" y2="146.52"/>
<line x1="542.86" y1="158.89" x2="553.68" y2="136.95"/>
<line x1="542.86" y1="158.89" x2="524.16" y2="218.13"/>
<line x1="542.86" y1="158.89" x2="556.69" y2="191.05"/>
<line x1="542.86" y1="158.89" x2="568.18" y2="219.68"/>
<line x1="113.48" y1=" 46.06" x2="136.88" y2=" 72.85"/>
<line x1="113.48" y1=" 46.06" x2=" 99.12" y2=" 91.47"/>
<line x1="621.32" y1="130.40" x2="602.62" y2=" 60.19"/>
<line x1="621.32" y1="130.40" x2="593.13" y2=" 71.52"/>
<line x1="621.32" y1="130.40" x2="630.15" y2=" 66.37"/>
<line x1="621.32" y1="130.40" x2="553.68" y2="136.95"/>
<line x1="621.32" y1="130.40" x2="629.19" y2="157.19"/>
<line x1="621.32" y1="130.40" x2="622.20" y2="188.40"/>
<line x1="433.64" y1="200.32" x2="374.09" y2="214.75"/>
<line x1="433.64" y1="200.32" x2="462.12" y2="224.02"/>
<line x1="433.64" y1="200.32" x2="399.19" y2="230.87"/>
<line x1="433.64" y1="200.32" x2="488.47" y2="225.86"/>
<line x1="433.64" y1="200.32" x2="483.83" y2="210.33"/>
<line x1="433.64" y1="200.32" x2="457.85" y2="198.56"/>
<line x1="433.64" y1="200.32" x2="446.29" y2="173.90"/>
<line x1="433.64" y1="200.32" x2="415.09" y2="163.23"/>
<line x1="602.62" y1=" 60.19" x2="593.13" y2=" 71.52"/>
<line x1="602.62" y1=" 60.19" x2="630.15" y2=" 66.37"/>
<line x1="602.62" y1=" 60.19" x2="565.82" y2=" 33.77"/>
<line x1="602.62" y1=" 60.19" x2="657.01" y2=" 42.45"/>
<line x1="602.62" y1=" 60.19" x2="544.40" y2=" 72.33"/>
<line x1="194.58" y1="750.19" x2="239.04" y2="732.23"/>
<line x1="342.67" y1="664.08" x2="349.14" y2="592.54"/>
<line x1="342.67" y1="664.08" x2="293.80" y2="655.83"/>
<line x1="342.67" y1="664.08" x2="300.35" y2="619.48"/>
<line x1="342.67" y1="664.08" x2="361.29" y2="622.42"/>
<line x1="342.67" y1="664.08" x2="346.27" y2="706.91"/>
<line x1="342.67" y1="664.08" x2="316.76" y2="720.97"/>
<line x1="504.66" y1="396.03" x2="476.40" y2="339.57"/>
<line x1="504.66" y1="396.03" x2="508.71" y2="356.87"/>
<line x1="504.66" y1="396.03" x2="559.27" y2="408.02"/>
<line x1="504.66" y1="396.03" x2="539.99" y2="397.20"/>
<line x1="504.66" y1="396.03" x2="503.85" y2="440.26"/>
<line x1="584.44" y1="255.01" x2="572.81" y2="267.45"/>
<line x1="584.44" y1="255.01" x2="539.84" y2="310.80"/>
<line x1="584.44" y1="255.01" x2="606.60" y2="210.19"/>
<line x1="584.44" y1="255.01" x2="524.16" y2="218.13"/>
<line x1="584.44" y1="255.01" x2="556.69" y2="191.05"/>
<line x1="584.44" y1="255.01" x2="568.18" y2="219.68"/>
<line x1="584.44" y1="255.01" x2="647.66" y2="253.32"/>
<line x1="584.44" y1="255.01" x2="642.59" y2="228.73"/>
<line x1="504.00" y1="706.76" x2="484.93" y2="731.94"/>
<line x1="504.00" y1="706.76" x2="514.74" y2="689.40"/>
<line x1=" 98.24" y1="222.70" x2=" 56.14" y2="226.75"/>
<line x1=" 98.24" y1="222.70" x2=" 46.20" y2="267.15"/>
<line x1=" 98.24" y1="222.70" x2="161.76" y2="228.36"/>
<line x1=" 98.24" y1="222.70" x2=" 70.79" y2="225.20"/>
<line x1=" 98.24" y1="222.70" x2="145.56" y2="173.61"/>
<line x1=" 98.24" y1="222.70" x2="114.36" y2="263.99"/>
<line x1=" 98.24" y1="222.70" x2="110.02" y2="173.75"/>
<line x1=" 98.24" y1="222.70" x2=" 72.92" y2="268.70"/>
<line x1=" 98.24" y1="222.70" x2=" 99.05" y2="152.34"/>
<line x1="577.38" y1="500.02" x2="621.46" y2="558.76"/>
<line x1="577.38" y1="500.02" x2="617.71" y2="487.66"/>
<line x1="577.38" y1="500.02" x2="641.85" y2="481.33"/>
<line x1="577.38" y1="500.02" x2="521.73" y2="545.14"/>
<line x1="593.13" y1=" 71.52" x2="630.15" y2=" 66.37"/>
<line x1="593.13" y1=" 71.52" x2="565.82" y2=" 33.77"/>
<line x1="593.13" y1=" 71.52" x2="657.01" y2=" 42.45"/>
<line x1="593.13" y1=" 71.52" x2="544.40" y2=" 72.33"/>
<line x1="145.93" y1="509.15" x2="105.82" y2="537.56"/>
<line x1="145.93" y1="509.15" x2="183.10" y2="544.40"/>
<line x1="590.99" y1="329.42" x2="572.81" y2="267.45"/>
<line x1="590.99" y1="329.42" x2="641.48" y2="380.42"/>
<line x1="590.99" y1="329.42" x2="539.84" y2="310.80"/>
<line x1="590.99" y1="329.42" x2="612.85" y2="355.03"/>
<line x1="590.99" y1="329.42" x2="561.33" y2="325.30"/>
<line x1="297.11" y1="352.16" x2="306.38" y2="392.12"/>
<line x1="297.11" y1="352.16" x2="259.64" y2="351.64"/>
<line x1="297.11" y1="352.16" x2="349.44" y2="352.53"/>
<line x1="297.11" y1="352.16" x2="357.53" y2="335.89"/>
<line x1="297.11" y1="352.16" x2="343.25" y2="367.98"/>
<line x1=" 53.42" y1=" 93.53" x2=" 70.49" y2="148.80"/>
<line x1=" 53.42" y1=" 93.53" x2=" 99.12" y2=" 91.47"/>
<line x1=" 53.42" y1=" 93.53" x2=" 45.84" y2="161.76"/>
<line x1="721.93" y1="107.07" x2="737.75" y2=" 90.73"/>
<line x1="721.93" y1="107.07" x2="705.88" y2="143.21"/>
<line x1="721.93" y1="107.07" x2="755.64" y2="100.60"/>
<line x1="721.93" y1="107.07" x2="766.23" y2="129.81"/>
<line x1="721.93" y1="107.07" x2="736.79" y2=" 48.71"/>
<line x1="721.93" y1="107.07" x2="695.21" y2=" 88.75"/>
<line x1="370.27" y1="327.95" x2="349.44" y2="352.53"/>
<line x1="370.27" y1="327.95" x2="385.43" y2="333.69"/>
<line x1="370.27" y1="327.95" x2="357.53" y2="335.89"/>
<line x1="370.27" y1="327.95" x2="343.25" y2="367.98"/>
<line x1="572.81" y1="267.45" x2="539.84" y2="310.80"/>
<line x1="572.81" y1="267.45" x2="606.60" y2="210.19"/>
<line x1="572.81" y1="267.45" x2="524.16" y2="218.13"/>
<line x1="572.81" y1="267.45" x2="561.33" y2="325.30"/>
<line x1="572.81" y1="267.45" x2="568.18" y2="219.68"/>
<line x1="743.56" y1="362.02" x2="686.75" y2="375.49"/>
<line x1="743.56" y1="362.02" x2="752.54" y2="394.41"/>
<line x1="641.48" y1="380.42" x2="580.17" y2="414.72"/>
<line x1="641.48" y1="380.42" x2="612.85" y2="355.03"/>
<line x1="641.48" y1="380.42" x2="686.75" y2="375.49"/>
<line x1=" 35.90" y1="179.13" x2=" 70.49" y2="148.80"/>
<line x1=" 35.90" y1="179.13" x2=" 56.14" y2="226.75"/>
<line x1=" 35.90" y1="179.13" x2=" 70.79" y2="225.20"/>
<line x1=" 35.90" y1="179.13" x2=" 45.84" y2="161.76"/>
<line x1=" 35.90" y1="179.13" x2=" 99.05" y2="152.34"/>
<line x1="504.36" y1="616.24" x2="488.47" y2="629.34"/>
<line x1="504.36" y1="616.24" x2="521.73" y2="545.14"/>
<line x1="539.84" y1="310.80" x2="476.40" y2="339.57"/>
<line x1="539.84" y1="310.80" x2="508.71" y2="356.87"/>
<line x1="539.84" y1="310.80" x2="561.33" y2="325.30"/>
<line x1="630.15" y1=" 66.37" x2="565.82" y2=" 33.77"/>
<line x1="630.15" y1=" 66.37" x2="657.01" y2=" 42.45"/>
<line x1="630.15" y1=" 66.37" x2="695.21" y2=" 88.75"/>
<line x1="306.38" y1="392.12" x2="259.64" y2="351.64"/>
<line x1="306.38" y1="392.12" x2="349.44" y2="352.53"/>
<line x1="306.38" y1="392.12" x2="315.43" y2="435.62"/>
<line x1="306.38" y1="392.12" x2="343.25" y2="367.98"/>
<line x1="374.09" y1="214.75" x2="399.19" y2="230.87"/>
<line x1="374.09" y1="214.75" x2="376.08" y2="248.24"/>
<line x1="374.09" y1="214.75" x2="415.09" y2="163.23"/>
<line x1="606.60" y1="210.19" x2="660.40" y2="200.69"/>
<line x1="606.60" y1="210.19" x2="629.19" y2="157.19"/>
<line x1="606.60" y1="210.19" x2="556.69" y2="191.05"/>
<line x1="606.60" y1="210.19" x2="568.18" y2="219.68"/>
<line x1="606.60" y1="210.19" x2="622.20" y2="188.40"/>
<line x1="606.60" y1="210.19" x2="647.66" y2="253.32"/>
<line x1="606.60" y1="210.19" x2="642.59" y2="228.73"/>
<line x1="349.22" y1="519.01" x2="349.14" y2="592.54"/>
<line x1="349.22" y1="519.01" x2="286.51" y2="519.08"/>
<line x1="349.22" y1="519.01" x2="362.32" y2="494.36"/>
<line x1="349.22" y1="519.01" x2="308.29" y2="511.21"/>
<line x1="349.22" y1="519.01" x2="315.36" y2="576.49"/>
<line x1="239.04" y1="732.23" x2="282.31" y2="752.47"/>
<line x1="239.04" y1="732.23" x2="206.28" y2="671.73"/>
<line x1="239.04" y1="732.23" x2="231.97" y2="672.03"/>
<line x1="349.14" y1="592.54" x2="300.35" y2="619.48"/>
<line x1="349.14" y1="592.54" x2="361.29" y2="622.42"/>
<line x1="349.14" y1="592.54" x2="315.36" y2="576.49"/>
<line x1="689.62" y1="580.39" x2="621.46" y2="558.76"/>
<line x1="689.62" y1="580.39" x2="685.20" y2="652.67"/>
<line x1="689.62" y1="580.39" x2="617.71" y2="575.98"/>
<line x1="689.62" y1="580.39" x2="710.08" y2="593.35"/>
<line x1="689.62" y1="580.39" x2="708.16" y2="647.30"/>
<line x1=" 76.16" y1="418.33" x2=" 33.55" y2="451.45"/>
<line x1=" 76.16" y1="418.33" x2=" 41.05" y2="370.27"/>
<line x1=" 76.16" y1="418.33" x2="113.92" y2="391.68"/>
<line x1="511.80" y1="146.52" x2="490.09" y2="106.19"/>
<line x1="511.80" y1="146.52" x2="553.68" y2="136.95"/>
<line x1="511.80" y1="146.52" x2="483.83" y2="210.33"/>
<line x1="511.80" y1="146.52" x2="524.16" y2="218.13"/>
<line x1="511.80" y1="146.52" x2="556.69" y2="191.05"/>
<line x1="511.80" y1="146.52" x2="446.29" y2="173.90"/>
<line x1="237.93" y1=" 54.30" x2="267.15" y2=" 67.70"/>
<line x1="237.93" y1=" 54.30" x2="267.23" y2=" 48.34"/>
<line x1="237.93" y1=" 54.30" x2="209.60" y2="103.69"/>
<line x1="237.93" y1=" 54.30" x2="191.71" y2=" 55.18"/>
<line x1="490.09" y1="106.19" x2="553.68" y2="136.95"/>
<line x1="490.09" y1="106.19" x2="439.38" y2=" 65.12"/>
<line x1="490.09" y1="106.19" x2="544.40" y2=" 72.33"/>
<line x1="490.09" y1="106.19" x2="464.84" y2=" 54.08"/>
<line x1="462.12" y1="224.02" x2="399.19" y2="230.87"/>
<line x1="462.12" y1="224.02" x2="488.47" y2="225.86"/>
<line x1="462.12" y1="224.02" x2="483.83" y2="210.33"/>
<line x1="462.12" y1="224.02" x2="524.16" y2="218.13"/>
<line x1="462.12" y1="224.02" x2="457.85" y2="198.56"/>
<line x1="462.12" y1="224.02" x2="446.29" y2="173.90"/>
<line x1="399.19" y1="230.87" x2="457.85" y2="198.56"/>
<line x1="399.19" y1="230.87" x2="376.08" y2="248.24"/>
<line x1="399.19" y1="230.87" x2="415.09" y2="163.23"/>
<line x1="267.15" y1=" 67.70" x2="267.23" y2=" 48.34"/>
<line x1="267.15" y1=" 67.70" x2="209.60" y2="103.69"/>
<line x1="267.15" y1=" 67.70" x2="263.25" y2="139.60"/>
<line x1="259.64" y1="351.64" x2="191.56" y2="327.72"/>
<line x1=" 70.49" y1="148.80" x2=" 99.12" y2=" 91.47"/>
<line x1=" 70.49" y1="148.80" x2="110.02" y2="173.75"/>
<line x1=" 70.49" y1="148.80" x2="116.86" y2="143.87"/>
<line x1=" 70.49" y1="148.80" x2=" 45.84" y2="161.76"/>
<line x1=" 70.49" y1="148.80" x2=" 99.05" y2="152.34"/>
<line x1="580.17" y1="414.72" x2="612.85" y2="355.03"/>
<line x1="580.17" y1="414.72" x2="559.27" y2="408.02"/>
<line x1="580.17" y1="414.72" x2="539.99" y2="397.20"/>
<line x1="286.51" y1="519.08" x2="227.63" y2="495.83"/>
<line x1="286.51" y1="519.08" x2="252.28" y2="575.46"/>
<line x1="286.51" y1="519.08" x2="308.29" y2="511.21"/>
<line x1="286.51" y1="519.08" x2="315.36" y2="576.49"/>
<line x1=" 74.69" y1="752.99" x2="107.29" y2="765.94"/>
<line x1=" 74.69" y1="752.99" x2=" 34.94" y2="717.44"/>
<line x1="737.75" y1=" 90.73" x2="705.88" y2="143.21"/>
<line x1="737.75" y1=" 90.73" x2="758.36" y2=" 42.45"/>
<line x1="737.75" y1=" 90.73" x2="755.64" y2="100.60"/>
<line x1="737.75" y1=" 90.73" x2="766.23" y2="129.81"/>
<line x1="737.75" y1=" 90.73" x2="736.79" y2=" 48.71"/>
<line x1="737.75" y1=" 90.73" x2="695.21" y2=" 88.75"/>
<line x1="621.46" y1="558.76" x2="617.71" y2="487.66"/>
<line x1="621.46" y1="558.76" x2="617.71" y2="575.98"/>
<line x1="621.46" y1="558.76" x2="584.37" y2="590.84"/>
<line x1=" 66.74" y1="298.58" x2=" 56.14" y2="226.75"/>
<line x1=" 66.74" y1="298.58" x2=" 46.20" y2="267.15"/>
<line x1=" 66.74" y1="298.58" x2=" 67.40" y2="337.00"/>
<line x1=" 66.74" y1="298.58" x2=" 46.87" y2="298.80"/>
<line x1=" 66.74" y1="298.58" x2=" 70.79" y2="225.20"/>
<line x1=" 66.74" y1="298.58" x2="114.36" y2="263.99"/>
<line x1=" 66.74" y1="298.58" x2=" 72.92" y2="268.70"/>
<line x1="660.40" y1="200.69" x2="705.88" y2="143.21"/>
<line x1="660.40" y1="200.69" x2="629.19" y2="157.19"/>
<line x1="660.40" y1="200.69" x2="622.20" y2="188.40"/>
<line x1="660.40" y1="200.69" x2="647.66" y2="253.32"/>
<line x1="660.40" y1="200.69" x2="720.68" y2="203.05"/>
<line x1="660.40" y1="200.69" x2="642.59" y2="228.73"/>
<line x1="476.40" y1="339.57" x2="508.71" y2="356.87"/>
<line x1="634.78" y1="742.76" x2="579.66" y2="732.08"/>
<line x1="617.71" y1="487.66" x2="641.85" y2="481.33"/>
<line x1="754.38" y1="244.56" x2="735.98" y2="288.64"/>
<line x1="754.38" y1="244.56" x2="720.68" y2="203.05"/>
<line x1="754.38" y1="244.56" x2="719.20" y2="272.75"/>
<line x1="705.88" y1="143.21" x2="755.64" y2="100.60"/>
<line x1="705.88" y1="143.21" x2="766.23" y2="129.81"/>
<line x1="705.88" y1="143.21" x2="695.21" y2=" 88.75"/>
<line x1="705.88" y1="143.21" x2="720.68" y2="203.05"/>
<line x1="488.47" y1="225.86" x2="483.83" y2="210.33"/>
<line x1="488.47" y1="225.86" x2="524.16" y2="218.13"/>
<line x1="488.47" y1="225.86" x2="457.85" y2="198.56"/>
<line x1="488.47" y1="225.86" x2="446.29" y2="173.90"/>
<line x1="346.42" y1=" 36.05" x2="339.80" y2=" 52.98"/>
<line x1="346.42" y1=" 36.05" x2="381.23" y2=" 79.77"/>
<line x1="346.42" y1=" 36.05" x2="402.21" y2=" 55.99"/>
<line x1=" 56.14" y1="226.75" x2=" 46.20" y2="267.15"/>
<line x1=" 56.14" y1="226.75" x2=" 46.87" y2="298.80"/>
<line x1=" 56.14" y1="226.75" x2=" 70.79" y2="225.20"/>
<line x1=" 56.14" y1="226.75" x2="114.36" y2="263.99"/>
<line x1=" 56.14" y1="226.75" x2=" 45.84" y2="161.76"/>
<line x1=" 56.14" y1="226.75" x2=" 72.92" y2="268.70"/>
<line x1="685.20" y1="652.67" x2="710.08" y2="593.35"/>
<line x1="685.20" y1="652.67" x2="708.16" y2="647.30"/>
<line x1="758.36" y1=" 42.45" x2="755.64" y2="100.60"/>
<line x1="758.36" y1=" 42.45" x2="736.79" y2=" 48.71"/>
<line x1="314.92" y1="136.22" x2="263.25" y2="139.60"/>
<line x1="170.44" y1="179.05" x2="223.36" y2="216.74"/>
<line x1="170.44" y1="179.05" x2="182.44" y2="154.10"/>
<line x1="170.44" y1="179.05" x2="161.76" y2="228.36"/>
<line x1="170.44" y1="179.05" x2="145.56" y2="173.61"/>
<line x1="170.44" y1="179.05" x2="230.35" y2="151.53"/>
<line x1="170.44" y1="179.05" x2="110.02" y2="173.75"/>
<line x1="170.44" y1="179.05" x2="182.36" y2="234.99"/>
<line x1="170.44" y1="179.05" x2="116.86" y2="143.87"/>
<line x1="170.44" y1="179.05" x2="140.71" y2="120.32"/>
<line x1="170.44" y1="179.05" x2="201.50" y2="235.14"/>
<line x1="170.44" y1="179.05" x2="195.61" y2="189.65"/>
<line x1=" 55.70" y1="668.71" x2=" 42.67" y2="625.22"/>
<line x1=" 55.70" y1="668.71" x2="106.92" y2="654.95"/>
<line x1=" 55.70" y1="668.71" x2="113.77" y2="672.61"/>
<line x1=" 55.70" y1="668.71" x2=" 34.94" y2="717.44"/>
<line x1="293.80" y1="655.83" x2="300.35" y2="619.48"/>
<line x1="293.80" y1="655.83" x2="266.49" y2="643.84"/>
<line x1="293.80" y1="655.83" x2="257.51" y2="613.44"/>
<line x1="293.80" y1="655.83" x2="346.27" y2="706.91"/>
<line x1="293.80" y1="655.83" x2="238.08" y2="627.20"/>
<line x1="293.80" y1="655.83" x2="316.76" y2="720.97"/>
<line x1="293.80" y1="655.83" x2="231.97" y2="672.03"/>
<line x1="612.85" y1="355.03" x2="561.33" y2="325.30"/>
<line x1="405.52" y1=" 84.40" x2="339.80" y2=" 52.98"/>
<line x1="405.52" y1=" 84.40" x2="439.38" y2=" 65.12"/>
<line x1="405.52" y1=" 84.40" x2="381.23" y2=" 79.77"/>
<line x1="405.52" y1=" 84.40" x2="402.21" y2=" 55.99"/>
<line x1="405.52" y1=" 84.40" x2="464.84" y2=" 54.08"/>
<line x1="223.36" y1="216.74" x2="161.76" y2="228.36"/>
<line x1="223.36" y1="216.74" x2="232.56" y2="255.08"/>
<line x1="223.36" y1="216.74" x2="230.35" y2="151.53"/>
<line x1="223.36" y1="216.74" x2="182.36" y2="234.99"/>
<line x1="223.36" y1="216.74" x2="201.50" y2="235.14"/>
<line x1="223.36" y1="216.74" x2="240.66" y2="205.40"/>
<line x1="223.36" y1="216.74" x2="218.36" y2="250.08"/>
<line x1="223.36" y1="216.74" x2="195.61" y2="189.65"/>
<line x1="105.82" y1="537.56" x2="105.82" y2="579.00"/>
<line x1="105.82" y1="537.56" x2=" 98.24" y2="599.68"/>
<line x1="282.31" y1="752.47" x2="316.76" y2="720.97"/>
<line x1="339.80" y1=" 52.98" x2="267.23" y2=" 48.34"/>
<line x1="339.80" y1=" 52.98" x2="381.23" y2=" 79.77"/>
<line x1="339.80" y1=" 52.98" x2="402.21" y2=" 55.99"/>
<line x1="553.68" y1="136.95" x2="556.69" y2="191.05"/>
<line x1="553.68" y1="136.95" x2="544.40" y2=" 72.33"/>
<line x1="755.64" y1="100.60" x2="766.23" y2="129.81"/>
<line x1="755.64" y1="100.60" x2="736.79" y2=" 48.71"/>
<line x1="755.64" y1="100.60" x2="695.21" y2=" 88.75"/>
<line x1="453.07" y1="561.11" x2="477.87" y2="505.91"/>
<line x1="453.07" y1="561.11" x2="521.73" y2="545.14"/>
<line x1="206.28" y1="671.73" x2="266.49" y2="643.84"/>
<line x1="206.28" y1="671.73" x2="166.91" y2="625.95"/>
<line x1="206.28" y1="671.73" x2="238.08" y2="627.20"/>
<line x1="206.28" y1="671.73" x2="231.97" y2="672.03"/>
<line x1="206.28" y1="671.73" x2="160.95" y2="653.40"/>
<line x1="136.88" y1=" 72.85" x2=" 99.12" y2=" 91.47"/>
<line x1="136.88" y1=" 72.85" x2="166.84" y2="101.55"/>
<line x1="136.88" y1=" 72.85" x2="191.71" y2=" 55.18"/>
<line x1="136.88" y1=" 72.85" x2="140.71" y2="120.32"/>
<line x1=" 42.67" y1="625.22" x2="106.92" y2="654.95"/>
<line x1=" 42.67" y1="625.22" x2=" 98.24" y2="599.68"/>
<line x1="158.44" y1="308.22" x2="191.56" y2="327.72"/>
<line x1="158.44" y1="308.22" x2="114.36" y2="263.99"/>
<line x1="158.44" y1="308.22" x2="148.66" y2="329.42"/>
<line x1="158.44" y1="308.22" x2="139.24" y2="353.56"/>
<line x1="483.83" y1="210.33" x2="524.16" y2="218.13"/>
<line x1="483.83" y1="210.33" x2="457.85" y2="198.56"/>
<line x1="483.83" y1="210.33" x2="446.29" y2="173.90"/>
<line x1="524.16" y1="218.13" x2="457.85" y2="198.56"/>
<line x1="524.16" y1="218.13" x2="556.69" y2="191.05"/>
<line x1="524.16" y1="218.13" x2="568.18" y2="219.68"/>
<line x1="219.61" y1="579.36" x2="166.91" y2="625.95"/>
<line x1="219.61" y1="579.36" x2="257.51" y2="613.44"/>
<line x1="219.61" y1="579.36" x2="238.08" y2="627.20"/>
<line x1="219.61" y1="579.36" x2="252.28" y2="575.46"/>
<line x1="219.61" y1="579.36" x2="183.10" y2="544.40"/>
<line x1=" 46.20" y1="267.15" x2=" 67.40" y2="337.00"/>
<line x1=" 46.20" y1="267.15" x2=" 46.87" y2="298.80"/>
<line x1=" 46.20" y1="267.15" x2=" 70.79" y2="225.20"/>
<line x1=" 46.20" y1="267.15" x2="114.36" y2="263.99"/>
<line x1=" 46.20" y1="267.15" x2=" 72.92" y2="268.70"/>
<line x1="362.32" y1="494.36" x2="308.29" y2="511.21"/>
<line x1="212.69" y1="454.02" x2="227.63" y2="495.83"/>
<line x1="212.69" y1="454.02" x2="225.20" y2="446.15"/>
<line x1="629.19" y1="157.19" x2="622.20" y2="188.40"/>
<line x1="629.19" y1="157.19" x2="642.59" y2="228.73"/>
<line x1="457.85" y1="198.56" x2="446.29" y2="173.90"/>
<line x1="457.85" y1="198.56" x2="415.09" y2="163.23"/>
<line x1="349.44" y1="352.53" x2="385.43" y2="333.69"/>
<line x1="349.44" y1="352.53" x2="357.53" y2="335.89"/>
<line x1="349.44" y1="352.53" x2="343.25" y2="367.98"/>
<line x1=" 99.12" y1=" 91.47" x2="166.84" y2="101.55"/>
<line x1=" 99.12" y1=" 91.47" x2="116.86" y2="143.87"/>
<line x1=" 99.12" y1=" 91.47" x2="140.71" y2="120.32"/>
<line x1=" 99.12" y1=" 91.47" x2=" 99.05" y2="152.34"/>
<line x1="166.84" y1="101.55" x2="182.44" y2="154.10"/>
<line x1="166.84" y1="101.55" x2="209.60" y2="103.69"/>
<line x1="166.84" y1="101.55" x2="191.71" y2=" 55.18"/>
<line x1="166.84" y1="101.55" x2="116.86" y2="143.87"/>
<line x1="166.84" y1="101.55" x2="140.71" y2="120.32"/>
<line x1="300.35" y1="619.48" x2="266.49" y2="643.84"/>
<line x1="300.35" y1="619.48" x2="361.29" y2="622.42"/>
<line x1="300.35" y1="619.48" x2="257.51" y2="613.44"/>
<line x1="300.35" y1="619.48" x2="238.08" y2="627.20"/>
<line x1="300.35" y1="619.48" x2="252.28" y2="575.46"/>
<line x1="300.35" y1="619.48" x2="315.36" y2="576.49"/>
<line x1=" 67.40" y1="337.00" x2=" 46.87" y2="298.80"/>
<line x1=" 67.40" y1="337.00" x2=" 41.05" y2="370.27"/>
<line x1=" 67.40" y1="337.00" x2="113.92" y2="391.68"/>
<line x1=" 67.40" y1="337.00" x2=" 72.92" y2="268.70"/>
<line x1="556.69" y1="191.05" x2="568.18" y2="219.68"/>
<line x1="556.69" y1="191.05" x2="622.20" y2="188.40"/>
<line x1="439.38" y1=" 65.12" x2="381.23" y2=" 79.77"/>
<line x1="439.38" y1=" 65.12" x2="402.21" y2=" 55.99"/>
<line x1="439.38" y1=" 65.12" x2="464.84" y2=" 54.08"/>
<line x1="182.44" y1="154.10" x2="145.56" y2="173.61"/>
<line x1="182.44" y1="154.10" x2="209.60" y2="103.69"/>
<line x1="182.44" y1="154.10" x2="230.35" y2="151.53"/>
<line x1="182.44" y1="154.10" x2="116.86" y2="143.87"/>
<line x1="182.44" y1="154.10" x2="140.71" y2="120.32"/>
<line x1="182.44" y1="154.10" x2="195.61" y2="189.65"/>
<line x1="565.82" y1=" 33.77" x2="544.40" y2=" 72.33"/>
<line x1="484.93" y1="731.94" x2="514.74" y2="689.40"/>
<line x1="381.23" y1=" 79.77" x2="402.21" y2=" 55.99"/>
<line x1="266.49" y1="643.84" x2="257.51" y2="613.44"/>
<line x1="266.49" y1="643.84" x2="238.08" y2="627.20"/>
<line x1="266.49" y1="643.84" x2="252.28" y2="575.46"/>
<line x1="266.49" y1="643.84" x2="231.97" y2="672.03"/>
<line x1="361.29" y1="622.42" x2="315.36" y2="576.49"/>
<line x1="191.56" y1="327.72" x2="148.66" y2="329.42"/>
<line x1="191.56" y1="327.72" x2="139.24" y2="353.56"/>
<line x1="617.71" y1="575.98" x2="584.37" y2="590.84"/>
<line x1=" 46.87" y1="298.80" x2=" 41.05" y2="370.27"/>
<line x1=" 46.87" y1="298.80" x2=" 72.92" y2="268.70"/>
<line x1="508.71" y1="356.87" x2="561.33" y2="325.30"/>
<line x1="508.71" y1="356.87" x2="559.27" y2="408.02"/>
<line x1="508.71" y1="356.87" x2="539.99" y2="397.20"/>
<line x1="718.98" y1="464.33" x2="746.73" y2="455.94"/>
<line x1="718.98" y1="464.33" x2="724.21" y2="513.34"/>
<line x1="166.91" y1="625.95" x2="106.92" y2="654.95"/>
<line x1="166.91" y1="625.95" x2="238.08" y2="627.20"/>
<line x1="166.91" y1="625.95" x2="125.03" y2="639.94"/>
<line x1="166.91" y1="625.95" x2=" 98.24" y2="599.68"/>
<line x1="166.91" y1="625.95" x2="113.77" y2="672.61"/>
<line x1="166.91" y1="625.95" x2="139.38" y2="607.92"/>
<line x1="166.91" y1="625.95" x2="160.95" y2="653.40"/>
<line x1="583.04" y1="642.66" x2="584.37" y2="590.84"/>
<line x1="161.76" y1="228.36" x2="145.56" y2="173.61"/>
<line x1="161.76" y1="228.36" x2="114.36" y2="263.99"/>
<line x1="161.76" y1="228.36" x2="182.36" y2="234.99"/>
<line x1="161.76" y1="228.36" x2="201.50" y2="235.14"/>
<line x1="161.76" y1="228.36" x2="218.36" y2="250.08"/>
<line x1="161.76" y1="228.36" x2="195.61" y2="189.65"/>
<line x1="710.08" y1="593.35" x2="708.16" y2="647.30"/>
<line x1="385.43" y1="333.69" x2="357.53" y2="335.89"/>
<line x1="385.43" y1="333.69" x2="343.25" y2="367.98"/>
<line x1=" 70.79" y1="225.20" x2="114.36" y2="263.99"/>
<line x1=" 70.79" y1="225.20" x2="110.02" y2="173.75"/>
<line x1=" 70.79" y1="225.20" x2=" 45.84" y2="161.76"/>
<line x1=" 70.79" y1="225.20" x2=" 72.92" y2="268.70"/>
<line x1="145.56" y1="173.61" x2="110.02" y2="173.75"/>
<line x1="145.56" y1="173.61" x2="182.36" y2="234.99"/>
<line x1="145.56" y1="173.61" x2="116.86" y2="143.87"/>
<line x1="145.56" y1="173.61" x2="140.71" y2="120.32"/>
<line x1="145.56" y1="173.61" x2=" 99.05" y2="152.34"/>
<line x1="145.56" y1="173.61" x2="195.61" y2="189.65"/>
<line x1="105.82" y1="579.00" x2="125.03" y2="639.94"/>
<line x1="105.82" y1="579.00" x2=" 98.24" y2="599.68"/>
<line x1="105.82" y1="579.00" x2="139.38" y2="607.92"/>
<line x1="232.56" y1="255.08" x2="182.36" y2="234.99"/>
<line x1="232.56" y1="255.08" x2="201.50" y2="235.14"/>
<line x1="232.56" y1="255.08" x2="240.66" y2="205.40"/>
<line x1="232.56" y1="255.08" x2="218.36" y2="250.08"/>
<line x1="657.01" y1=" 42.45" x2="695.21" y2=" 88.75"/>
<line x1="257.51" y1="613.44" x2="238.08" y2="627.20"/>
<line x1="257.51" y1="613.44" x2="252.28" y2="575.46"/>
<line x1="257.51" y1="613.44" x2="231.97" y2="672.03"/>
<line x1="257.51" y1="613.44" x2="315.36" y2="576.49"/>
<line x1="209.60" y1="103.69" x2="230.35" y2="151.53"/>
<line x1="209.60" y1="103.69" x2="191.71" y2=" 55.18"/>
<line x1="209.60" y1="103.69" x2="140.71" y2="120.32"/>
<line x1="209.60" y1="103.69" x2="263.25" y2="139.60"/>
<line x1="346.27" y1="706.91" x2="316.76" y2="720.97"/>
<line x1="746.73" y1="455.94" x2="752.54" y2="394.41"/>
<line x1="746.73" y1="455.94" x2="724.21" y2="513.34"/>
<line x1="686.75" y1="375.49" x2="752.54" y2="394.41"/>
<line x1="568.18" y1="219.68" x2="622.20" y2="188.40"/>
<line x1="230.35" y1="151.53" x2="240.66" y2="205.40"/>
<line x1="230.35" y1="151.53" x2="195.61" y2="189.65"/>
<line x1="230.35" y1="151.53" x2="263.25" y2="139.60"/>
<line x1="622.20" y1="188.40" x2="647.66" y2="253.32"/>
<line x1="622.20" y1="188.40" x2="642.59" y2="228.73"/>
<line x1="227.63" y1="495.83" x2="225.20" y2="446.15"/>
<line x1="227.63" y1="495.83" x2="183.10" y2="544.40"/>
<line x1="315.43" y1="435.62" x2="343.25" y2="367.98"/>
<line x1="106.92" y1="654.95" x2="125.03" y2="639.94"/>
<line x1="106.92" y1="654.95" x2=" 98.24" y2="599.68"/>
<line x1="106.92" y1="654.95" x2="113.77" y2="672.61"/>
<line x1="106.92" y1="654.95" x2="139.38" y2="607.92"/>
<line x1="106.92" y1="654.95" x2="160.95" y2="653.40"/>
<line x1="114.36" y1="263.99" x2=" 72.92" y2="268.70"/>
<line x1="238.08" y1="627.20" x2="252.28" y2="575.46"/>
<line x1="238.08" y1="627.20" x2="231.97" y2="672.03"/>
<line x1="110.02" y1="173.75" x2="116.86" y2="143.87"/>
<line x1="110.02" y1="173.75" x2=" 45.84" y2="161.76"/>
<line x1="110.02" y1="173.75" x2="140.71" y2="120.32"/>
<line x1="110.02" y1="173.75" x2=" 99.05" y2="152.34"/>
<line x1="736.79" y1=" 48.71" x2="695.21" y2=" 88.75"/>
<line x1="182.36" y1="234.99" x2="201.50" y2="235.14"/>
<line x1="182.36" y1="234.99" x2="240.66" y2="205.40"/>
<line x1="182.36" y1="234.99" x2="218.36" y2="250.08"/>
<line x1="182.36" y1="234.99" x2="195.61" y2="189.65"/>
<line x1="559.27" y1="408.02" x2="539.99" y2="397.20"/>
<line x1="559.27" y1="408.02" x2="503.85" y2="440.26"/>
<line x1="735.98" y1="288.64" x2="719.20" y2="272.75"/>
<line x1="446.29" y1="173.90" x2="415.09" y2="163.23"/>
<line x1="431.13" y1="659.07" x2="488.47" y2="629.34"/>
<line x1="539.99" y1="397.20" x2="503.85" y2="440.26"/>
<line x1="307.04" y1="272.01" x2="376.08" y2="248.24"/>
<line x1="125.03" y1="639.94" x2=" 98.24" y2="599.68"/>
<line x1="125.03" y1="639.94" x2="113.77" y2="672.61"/>
<line x1="125.03" y1="639.94" x2="139.38" y2="607.92"/>
<line x1="125.03" y1="639.94" x2="160.95" y2="653.40"/>
<line x1="488.47" y1="629.34" x2="514.74" y2="689.40"/>
<line x1="402.21" y1=" 55.99" x2="464.84" y2=" 54.08"/>
<line x1="503.85" y1="440.26" x2="477.87" y2="505.91"/>
<line x1="116.86" y1="143.87" x2=" 45.84" y2="161.76"/>
<line x1="116.86" y1="143.87" x2="140.71" y2="120.32"/>
<line x1="116.86" y1="143.87" x2=" 99.05" y2="152.34"/>
<line x1=" 45.84" y1="161.76" x2=" 99.05" y2="152.34"/>
<line x1=" 98.24" y1="599.68" x2="139.38" y2="607.92"/>
<line x1="647.66" y1="253.32" x2="659.51" y2="279.08"/>
<line x1="647.66" y1="253.32" x2="642.59" y2="228.73"/>
<line x1="140.71" y1="120.32" x2=" 99.05" y2="152.34"/>
<line x1="477.87" y1="505.91" x2="521.73" y2="545.14"/>
<line x1="201.50" y1="235.14" x2="240.66" y2="205.40"/>
<line x1="201.50" y1="235.14" x2="218.36" y2="250.08"/>
<line x1="201.50" y1="235.14" x2="195.61" y2="189.65"/>
<line x1="720.68" y1="203.05" x2="719.20" y2="272.75"/>
<line x1="113.92" y1="391.68" x2="148.66" y2="329.42"/>
<line x1="113.92" y1="391.68" x2="139.24" y2="353.56"/>
<line x1="252.28" y1="575.46" x2="315.36" y2="576.49"/>
<line x1="113.77" y1="672.61" x2="139.38" y2="607.92"/>
<line x1="113.77" y1="672.61" x2="160.95" y2="653.40"/>
<line x1="240.66" y1="205.40" x2="218.36" y2="250.08"/>
<line x1="240.66" y1="205.40" x2="195.61" y2="189.65"/>
<line x1="240.66" y1="205.40" x2="263.25" y2="139.60"/>
<line x1="659.51" y1="279.08" x2="719.20" y2="272.75"/>
<line x1="659.51" y1="279.08" x2="642.59" y2="228.73"/>
<line x1="231.97" y1="672.03" x2="160.95" y2="653.40"/>
<line x1="148.66" y1="329.42" x2="139.24" y2="353.56"/>
<line x1="357.53" y1="335.89" x2="343.25" y2="367.98"/>
<line x1="218.36" y1="250.08" x2="195.61" y2="189.65"/>
<line x1="308.29" y1="511.21" x2="315.36" y2="576.49"/>
<line x1="139.38" y1="607.92" x2="160.95" y2="653.40"/>
</g><g style="stroke:#000000;stroke-width:3;stroke-linejoin:round;fill:#FFFFFF">
<circle cx=" 35.02" cy="655.17" r="  8.00"/>
<circle cx="498.18" cy="510.40" r="  8.00"/>
<circle cx="706.84" cy="453.29" r="  8.00"/>
<circle cx="140.78" cy="720.75" r="  8.00"/>
<circle cx="544.40" cy="360.55" r="  8.00"/>
<circle cx="451.89" cy="631.47" r="  8.00"/>
<circle cx="273.48" cy="534.47" r="  8.00"/>
<circle cx="765.13" cy=" 68.14" r="  8.00"/>
<circle cx="252.43" cy="174.93" r="  8.00"/>
<circle cx="387.27" cy="432.09" r="  8.00"/>
<circle cx="207.98" cy="370.85" r="  8.00"/>
<circle cx="319.19" cy=" 43.26" r="  8.00"/>
<circle cx=" 53.49" cy="207.32" r="  8.00"/>
<circle cx="578.19" cy="673.50" r="  8.00"/>
<circle cx="747.24" cy="760.27" r="  8.00"/>
<circle cx="432.90" cy="159.03" r="  8.00"/>
<circle cx="383.15" cy="145.20" r="  8.00"/>
<circle cx="169.56" cy="761.52" r="  8.00"/>
<circle cx="449.09" cy="495.61" r="  8.00"/>
<circle cx="549.78" cy="760.20" r="  8.00"/>
<circle cx="672.54" cy="312.49" r="  8.00"/>
<circle cx="129.30" cy=" 56.51" r="  8.00"/>
<circle cx="596.73" cy="375.27" r="  8.00"/>
<circle cx="410.38" cy="599.53" r="  8.00"/>
<circle cx="639.42" cy="537.48" r="  8.00"/>
<circle cx="440.26" cy="594.60" r="  8.00"/>
<circle cx="227.92" cy="234.92" r="  8.00"/>
<circle cx=" 34.72" cy="242.42" r="  8.00"/>
<circle cx="674.01" cy="748.94" r="  8.00"/>
<circle cx="586.13" cy=" 89.26" r="  8.00"/>
<circle cx="202.46" cy="255.38" r="  8.00"/>
<circle cx="193.18" cy="167.57" r="  8.00"/>
<circle cx=" 53.20" cy=" 39.80" r="  8.00"/>
<circle cx="697.34" cy="690.13" r="  8.00"/>
<circle cx="713.83" cy="226.89" r="  8.00"/>
<circle cx="580.03" cy="312.05" r="  8.00"/>
<circle cx="465.50" cy="527.25" r="  8.00"/>
<circle cx="353.63" cy="425.76" r="  8.00"/>
<circle cx="400.44" cy="113.03" r="  8.00"/>
<circle cx="355.32" cy="293.13" r="  8.00"/>
<circle cx="740.69" cy="225.05" r="  8.00"/>
<circle cx="332.58" cy="764.61" r="  8.00"/>
<circle cx="676.44" cy="167.42" r="  8.00"/>
<circle cx="397.50" cy="574.87" r="  8.00"/>
<circle cx="321.32" cy="496.27" r="  8.00"/>
<circle cx="543.08" cy="211.51" r="  8.00"/>
<circle cx="372.47" cy="129.37" r="  8.00"/>
<circle cx="439.52" cy="145.20" r="  8.00"/>
<circle cx="482.28" cy="185.24" r="  8.00"/>
<circle cx="247.57" cy="513.42" r="  8.00"/>
<circle cx="373.43" cy="742.83" r="  8.00"/>
<circle cx="231.01" cy="762.85" r="  8.00"/>
<circle cx="324.71" cy="201.72" r="  8.00"/>
<circle cx="155.13" cy="207.61" r="  8.00"/>
<circle cx="401.55" cy="675.63" r="  8.00"/>
<circle cx="541.61" cy="699.70" r="  8.00"/>
<circle cx="493.47" cy="461.01" r="  8.00"/>
<circle cx="530.79" cy="442.17" r="  8.00"/>
<circle cx="407.14" cy="511.28" r="  8.00"/>
<circle cx="325.37" cy="274.14" r="  8.00"/>
<circle cx="706.25" cy="667.61" r="  8.00"/>
<circle cx="301.01" cy="442.25" r="  8.00"/>
<circle cx="328.68" cy="183.03" r="  8.00"/>
<circle cx="572.96" cy="116.64" r="  8.00"/>
<circle cx="542.86" cy="158.89" r="  8.00"/>
<circle cx="113.48" cy=" 46.06" r="  8.00"/>
<circle cx="621.32" cy="130.40" r="  8.00"/>
<circle cx="433.64" cy="200.32" r="  8.00"/>
<circle cx="602.62" cy=" 60.19" r="  8.00"/>
<circle cx="194.58" cy="750.19" r="  8.00"/>
<circle cx="342.67" cy="664.08" r="  8.00"/>
<circle cx="504.66" cy="396.03" r="  8.00"/>
<circle cx="584.44" cy="255.01" r="  8.00"/>
<circle cx="504.00" cy="706.76" r="  8.00"/>
<circle cx=" 98.24" cy="222.70" r="  8.00"/>
<circle cx="577.38" cy="500.02" r="  8.00"/>
<circle cx="593.13" cy=" 71.52" r="  8.00"/>
<circle cx="145.93" cy="509.15" r="  8.00"/>
<circle cx="590.99" cy="329.42" r="  8.00"/>
<circle cx="297.11" cy="352.16" r="  8.00"/>
<circle cx=" 53.42" cy=" 93.53" r="  8.00"/>
<circle cx="721.93" cy="107.07" r="  8.00"/>
<circle cx="370.27" cy="327.95" r="  8.00"/>
<circle cx="572.81" cy="267.45" r="  8.00"/>
<circle cx="743.56" cy="362.02" r="  8.00"/>
<circle cx="641.48" cy="380.42" r="  8.00"/>
<circle cx=" 35.90" cy="179.13" r="  8.00"/>
<circle cx="504.36" cy="616.24" r="  8.00"/>
<circle cx="539.84" cy="310.80" r="  8.00"/>
<circle cx="630.15" cy=" 66.37" r="  8.00"/>
<circle cx="306.38" cy="392.12" r="  8.00"/>
<circle cx="374.09" cy="214.75" r="  8.00"/>
<circle cx="606.60" cy="210.19" r="  8.00"/>
<circle cx="349.22" cy="519.01" r="  8.00"/>
<circle cx="239.04" cy="732.23" r="  8.00"/>
<circle cx="349.14" cy="592.54" r="  8.00"/>
<circle cx="689.62" cy="580.39" r="  8.00"/>
<circle cx=" 76.16" cy="418.33" r="  8.00"/>
<circle cx="511.80" cy="146.52" r="  8.00"/>
<circle cx="237.93" cy=" 54.30" r="  8.00"/>
<circle cx="490.09" cy="106.19" r="  8.00"/>
<circle cx="462.12" cy="224.02" r="  8.00"/>
<circle cx="399.19" cy="230.87" r="  8.00"/>
<circle cx="267.15" cy=" 67.70" r="  8.00"/>
<circle cx="259.64" cy="351.64" r="  8.00"/>
<circle cx=" 70.49" cy="148.80" r="  8.00"/>
<circle cx="717.51" cy="731.42" r="  8.00"/>
<circle cx="580.17" cy="414.72" r="  8.00"/>
<circle cx="286.51" cy="519.08" r="  8.00"/>
<circle cx=" 74.69" cy="752.99" r="  8.00"/>
<circle cx="737.75" cy=" 90.73" r="  8.00"/>
<circle cx="621.46" cy="558.76" r="  8.00"/>
<circle cx=" 66.74" cy="298.58" r="  8.00"/>
<circle cx="660.40" cy="200.69" r="  8.00"/>
<circle cx="476.40" cy="339.57" r="  8.00"/>
<circle cx="634.78" cy="742.76" r="  8.00"/>
<circle cx="617.71" cy="487.66" r="  8.00"/>
<circle cx="754.38" cy="244.56" r="  8.00"/>
<circle cx="705.88" cy="143.21" r="  8.00"/>
<circle cx="488.47" cy="225.86" r="  8.00"/>
<circle cx="346.42" cy=" 36.05" r="  8.00"/>
<circle cx=" 56.14" cy="226.75" r="  8.00"/>
<circle cx="685.20" cy="652.67" r="  8.00"/>
<circle cx="758.36" cy=" 42.45" r="  8.00"/>
<circle cx="314.92" cy="136.22" r="  8.00"/>
<circle cx="170.44" cy="179.05" r="  8.00"/>
<circle cx=" 55.70" cy="668.71" r="  8.00"/>
<circle cx=" 33.55" cy="451.45" r="  8.00"/>
<circle cx="293.80" cy="655.83" r="  8.00"/>
<circle cx="612.85" cy="355.03" r="  8.00"/>
<circle cx="405.52" cy=" 84.40" r="  8.00"/>
<circle cx="223.36" cy="216.74" r="  8.00"/>
<circle cx="105.82" cy="537.56" r="  8.00"/>
<circle cx="282.31" cy="752.47" r="  8.00"/>
<circle cx="339.80" cy=" 52.98" r="  8.00"/>
<circle cx="553.68" cy="136.95" r="  8.00"/>
<circle cx="755.64" cy="100.60" r="  8.00"/>
<circle cx="453.07" cy="561.11" r="  8.00"/>
<circle cx="766.23" cy="129.81" r="  8.00"/>
<circle cx="206.28" cy="671.73" r="  8.00"/>
<circle cx="136.88" cy=" 72.85" r="  8.00"/>
<circle cx="579.66" cy="732.08" r="  8.00"/>
<circle cx=" 42.67" cy="625.22" r="  8.00"/>
<circle cx="158.44" cy="308.22" r="  8.00"/>
<circle cx="483.83" cy="210.33" r="  8.00"/>
<circle cx="524.16" cy="218.13" r="  8.00"/>
<circle cx="219.61" cy="579.36" r="  8.00"/>
<circle cx=" 46.20" cy="267.15" r="  8.00"/>
<circle cx="641.85" cy="481.33" r="  8.00"/>
<circle cx="362.32" cy="494.36" r="  8.00"/>
<circle cx="212.69" cy="454.02" r="  8.00"/>
<circle cx="629.19" cy="157.19" r="  8.00"/>
<circle cx="457.85" cy="198.56" r="  8.00"/>
<circle cx="349.44" cy="352.53" r="  8.00"/>
<circle cx=" 99.12" cy=" 91.47" r="  8.00"/>
<circle cx="166.84" cy="101.55" r="  8.00"/>
<circle cx="300.35" cy="619.48" r="  8.00"/>
<circle cx=" 67.40" cy="337.00" r="  8.00"/>
<circle cx="267.23" cy=" 48.34" r="  8.00"/>
<circle cx="556.69" cy="191.05" r="  8.00"/>
<circle cx="439.38" cy=" 65.12" r="  8.00"/>
<circle cx="182.44" cy="154.10" r="  8.00"/>
<circle cx="565.82" cy=" 33.77" r="  8.00"/>
<circle cx="484.93" cy="731.94" r="  8.00"/>
<circle cx="381.23" cy=" 79.77" r="  8.00"/>
<circle cx="266.49" cy="643.84" r="  8.00"/>
<circle cx="361.29" cy="622.42" r="  8.00"/>
<circle cx="191.56" cy="327.72" r="  8.00"/>
<circle cx="617.71" cy="575.98" r="  8.00"/>
<circle cx=" 46.87" cy="298.80" r="  8.00"/>
<circle cx="508.71" cy="356.87" r="  8.00"/>
<circle cx="718.98" cy="464.33" r="  8.00"/>
<circle cx="166.91" cy="625.95" r="  8.00"/>
<circle cx="583.04" cy="642.66" r="  8.00"/>
<circle cx="161.76" cy="228.36" r="  8.00"/>
<circle cx="561.33" cy="325.30" r="  8.00"/>
<circle cx="710.08" cy="593.35" r="  8.00"/>
<circle cx="385.43" cy="333.69" r="  8.00"/>
<circle cx=" 70.79" cy="225.20" r="  8.00"/>
<circle cx="145.56" cy="173.61" r="  8.00"/>
<circle cx="107.29" cy="765.94" r="  8.00"/>
<circle cx="105.82" cy="579.00" r="  8.00"/>
<circle cx="584.37" cy="590.84" r="  8.00"/>
<circle cx="232.56" cy="255.08" r="  8.00"/>
<circle cx="657.01" cy=" 42.45" r="  8.00"/>
<circle cx="257.51" cy="613.44" r="  8.00"/>
<circle cx="708.16" cy="647.30" r="  8.00"/>
<circle cx="209.60" cy="103.69" r="  8.00"/>
<circle cx="346.27" cy="706.91" r="  8.00"/>
<circle cx="746.73" cy="455.94" r="  8.00"/>
<circle cx="686.75" cy="375.49" r="  8.00"/>
<circle cx="568.18" cy="219.68" r="  8.00"/>
<circle cx="230.35" cy="151.53" r="  8.00"/>
<circle cx="622.20" cy="188.40" r="  8.00"/>
<circle cx="227.63" cy="495.83" r="  8.00"/>
<circle cx="315.43" cy="435.62" r="  8.00"/>
<circle cx="106.92" cy="654.95" r="  8.00"/>
<circle cx="114.36" cy="263.99" r="  8.00"/>
<circle cx="238.08" cy="627.20" r="  8.00"/>
<circle cx="110.02" cy="173.75" r="  8.00"/>
<circle cx="191.71" cy=" 55.18" r="  8.00"/>
<circle cx="736.79" cy=" 48.71" r="  8.00"/>
<circle cx="182.36" cy="234.99" r="  8.00"/>
<circle cx="559.27" cy="408.02" r="  8.00"/>
<circle cx="735.98" cy="288.64" r="  8.00"/>
<circle cx="225.20" cy="446.15" r="  8.00"/>
<circle cx="446.29" cy="173.90" r="  8.00"/>
<circle cx="431.13" cy="659.07" r="  8.00"/>
<circle cx="539.99" cy="397.20" r="  8.00"/>
<circle cx=" 41.05" cy="370.27" r="  8.00"/>
<circle cx="307.04" cy="272.01" r="  8.00"/>
<circle cx="125.03" cy="639.94" r="  8.00"/>
<circle cx="488.47" cy="629.34" r="  8.00"/>
<circle cx="402.21" cy=" 55.99" r="  8.00"/>
<circle cx="695.21" cy=" 88.75" r="  8.00"/>
<circle cx="503.85" cy="440.26" r="  8.00"/>
<circle cx="116.86" cy="143.87" r="  8.00"/>
<circle cx="752.54" cy="394.41" r="  8.00"/>
<circle cx=" 45.84" cy="161.76" r="  8.00"/>
<circle cx=" 98.24" cy="599.68" r="  8.00"/>
<circle cx="647.66" cy="253.32" r="  8.00"/>
<circle cx="140.71" cy="120.32" r="  8.00"/>
<circle cx="477.87" cy="505.91" r="  8.00"/>
<circle cx="201.50" cy="235.14" r="  8.00"/>
<circle cx="720.68" cy="203.05" r="  8.00"/>
<circle cx="113.92" cy="391.68" r="  8.00"/>
<circle cx="252.28" cy="575.46" r="  8.00"/>
<circle cx="724.21" cy="513.34" r="  8.00"/>
<circle cx="113.77" cy="672.61" r="  8.00"/>
<circle cx="240.66" cy="205.40" r="  8.00"/>
<circle cx=" 72.92" cy="268.70" r="  8.00"/>
<circle cx="659.51" cy="279.08" r="  8.00"/>
<circle cx="719.20" cy="272.75" r="  8.00"/>
<circle cx="316.76" cy="720.97" r="  8.00"/>
<circle cx="231.97" cy="672.03" r="  8.00"/>
<circle cx="148.66" cy="329.42" r="  8.00"/>
<circle cx="357.53" cy="335.89" r="  8.00"/>
<circle cx="343.25" cy="367.98" r="  8.00"/>
<circle cx="514.74" cy="689.40" r="  8.00"/>
<circle cx="183.10" cy="544.40" r="  8.00"/>
<circle cx="521.73" cy="545.14" r="  8.00"/>
<circle cx="139.24" cy="353.56" r="  8.00"/>
<circle cx="218.36" cy="250.08" r="  8.00"/>
<circle cx=" 99.05" cy="152.34" r="  8.00"/>
<circle cx="376.08" cy="248.24" r="  8.00"/>
<circle cx="195.61" cy="189.65" r="  8.00"/>
<circle cx="308.29" cy="511.21" r="  8.00"/>
<circle cx="139.38" cy="607.92" r="  8.00"/>
<circle cx="415.09" cy="163.23" r="  8.00"/>
<circle cx="315.36" cy="576.49" r="  8.00"/>
<circle cx="544.40" cy=" 72.33" r="  8.00"/>
<circle cx="464.84" cy=" 54.08" r="  8.00"/>
<circle cx="263.25" cy="139.60" r="  8.00"/>
<circle cx="160.95" cy="653.40" r="  8.00"/>
<circle cx="642.59" cy="228.73" r="  8.00"/>
<circle cx=" 34.94" cy="717.44" r="  8.00"/>
</g></svg>